<mxfile host="app.diagrams.net" modified="2024-03-05T01:12:49.197Z" agent="Mozilla/5.0 (Windows NT 10.0; Win64; x64) AppleWebKit/537.36 (KHTML, like Gecko) Chrome/122.0.0.0 Safari/537.36 Edg/122.0.0.0" version="24.0.1" etag="ep72SwIOraHl5azykeJu" type="github">
  <diagram name="第 1 页" id="YZycSGmpW5G5g1q2AWNo">
    <mxGraphModel>
      <root>
        <mxCell id="0" />
        <mxCell id="1" parent="0" />
      </root>
    </mxGraphModel>
  </diagram>
</mxfile>
